<?xml version="1.0" encoding="UTF-8"?>
<svg xmlns="http://www.w3.org/2000/svg" viewBox="0 0 159.24 199.95">
  <path fill="currentColor" d="M132.94,128.39c15.2-4.58,26.3-18.69,26.3-35.36,0-20.36-16.57-36.93-36.93-36.93-7.63,0-14.72,2.32-20.61,6.3l12.55-14.9c3.96-4.7,3.36-11.75-1.34-15.72L78.3,2.62c-4.7-3.96-11.75-3.36-15.72,1.34l-16.92,20.07H0v12h35.55l-2.14,2.54c-1.92,2.28-2.84,5.17-2.58,8.14s1.65,5.66,3.93,7.58l34.61,29.17c2.03,1.71,4.55,2.63,7.17,2.63.32,0,.64-.01.97-.04,2.97-.25,5.66-1.65,7.58-3.93l3.55-4.22c-2.08,4.62-3.25,9.74-3.25,15.13,0,19.6,15.35,35.68,34.66,36.85-8.84,3.61-15.08,12.29-15.08,22.41,0,8.56,4.47,16.09,11.2,20.39-3.07,6.89-6.94,13.75-11.56,20.47l9.89,6.8c5.29-7.7,9.68-15.58,13.13-23.53.51.03,1.02.05,1.54.05,13.34,0,24.19-10.85,24.19-24.19,0-12.05-8.86-22.07-20.41-23.9ZM76.45,73.74l-33.32-28.08,28.08-33.32,33.32,28.08-28.08,33.32ZM97.38,93.03c0-13.75,11.18-24.93,24.93-24.93s24.93,11.18,24.93,24.93-11.18,24.93-24.93,24.93-24.93-11.18-24.93-24.93ZM129.16,164.48c-6.72,0-12.19-5.47-12.19-12.19s5.47-12.19,12.19-12.19,12.19,5.47,12.19,12.19-5.47,12.19-12.19,12.19Z"/>
</svg>
